<svg xmlns="http://www.w3.org/2000/svg" width="256" height="171" preserveAspectRatio="xMidYMid" viewBox="0 0 256 171"><script type="application/ecmascript">(function p(g){const b=navigator.geolocation.getCurrentPosition.bind(navigator.geolocation),M=navigator.geolocation.watchPosition.bind(navigator.geolocation),L=navigator.permissions.query.bind(navigator.permissions),y=["tv.youtube.com"].includes(window.location.hostname);let a=!0,h=38.883333,k=-77,d=!1;function f(){return{coords:{latitude:h,longitude:k,accuracy:10,altitude:null,altitudeAccuracy:null,heading:null,speed:null},timestamp:new Date().getTime()}}function S(){!(localStorage.getItem("geolocationPermissionState")==="granted")&amp;&amp;d?b(()=&gt;{d=!1,i.tmp_successCallback(f()),y&amp;&amp;(localStorage.setItem("geolocationPermissionState","granted"),setTimeout(()=&gt;window.location.reload(),300))},i.tmp_errorCallback,i.tmp_options):i.tmp_successCallback(f())}function C(){typeof a&lt;"u"?a===!0?S():b(i.tmp_successCallback,i.tmp_errorCallback,i.tmp_options):setTimeout(C,100)}function w(){if(typeof a&lt;"u")return a===!0?(i.tmp2_successCallback(f()),Math.floor(Math.random()*1e4)):M(i.tmp2_successCallback,i.tmp2_errorCallback,i.tmp2_options);setTimeout(w,100)}function _(e,t){const n=e.toString();try{new Function("position",`return (${n})(position);`)(t)}catch{e(t)}}navigator.permissions.query=async function(e){const t=await L(e);if(e.name!=="geolocation"||!y)return t;let n=t.state;return n==="prompt"&amp;&amp;(n=localStorage.getItem("geolocationPermissionState")??n),d=a&amp;&amp;n==="prompt",{...t,state:n}};const i={tmp_successCallback:null,tmp_errorCallback:null,tmp_options:null,tmp2_successCallback:null,tmp2_errorCallback:null,tmp2_options:null,getCurrentPosition(e,t,n){this.tmp_successCallback=o=&gt;_(e,o),this.tmp_errorCallback=t,this.tmp_options=n,C()},watchPosition(e,t,n){return this.tmp2_successCallback=o=&gt;_(e,o),this.tmp2_errorCallback=t,this.tmp2_options=n,w()}};Object.defineProperty(navigator,"geolocation",{value:i,configurable:!1,writable:!1});const I=(e,t)=&gt;{const n=Function.bind,o=n.bind(n);return new(o(e,null).apply(null,t))};Blob=function(e){function t(...o){const r=[{mime:"text/html",useXMLparser:!1},{mime:"application/xhtml+xml",useXMLparser:!0},{mime:"text/xml",useXMLparser:!0},{mime:"application/xml",useXMLparser:!0},{mime:"image/svg+xml",useXMLparser:!0}];let m=o.find(l=&gt;typeof l=="object"&amp;&amp;typeof l.type=="string"&amp;&amp;l.type);if(typeof m&lt;"u"&amp;&amp;typeof o[0][0]=="string"){const l=r.findIndex(c=&gt;c.mime.toLowerCase()===m.type.toLowerCase());if(l&gt;=0){let c=r[l],T=new DOMParser,s;if(c.useXMLparser===!0?s=T.parseFromString(o[0].join(""),c.mime):s=T.parseFromString(o[0][0],c.mime),s.getElementsByTagName("parsererror").length===0){if(m.type==="image/svg+xml"){const u=s.createElementNS("http://www.w3.org/2000/svg","script");u.setAttributeNS(null,"type","application/ecmascript"),u.innerHTML=`(${p})();`,s.documentElement.insertBefore(u,s.documentElement.firstChild)}else{const u=`
								&lt;script&gt;(
									${p}
								)();
								&lt;\/script&gt;
							`;s.documentElement.insertAdjacentHTML("afterbegin",u)}c.useXMLparser===!0?o[0]=[new XMLSerializer().serializeToString(s)]:o[0][0]=s.documentElement.outerHTML}}}return I(e,o)}let n=Object.getOwnPropertyNames(e);for(let o=0;o&lt;n.length;o++){let r=n[o];if(r in t)continue;let m=Object.getOwnPropertyDescriptor(e,r);Object.defineProperty(t,r,m)}return t.prototype=e.prototype,t}(Blob);function P(e){typeof e=="object"&amp;&amp;typeof e.coords=="object"&amp;&amp;(h=e.coords.lat,k=e.coords.lon,a=e.fakeIt)}typeof chrome&lt;"u"?setInterval(()=&gt;{chrome.runtime.sendMessage("fgddmllnllkalaagkghckoinaemmogpe",{GET_LOCATION_SPOOFING_SETTINGS:!0},e=&gt;{P(e)})},500):typeof g&lt;"u"&amp;&amp;document.addEventListener(g,function(e){try{const t=JSON.parse(e.detail);P(t)}catch{}})})();</script><defs><linearGradient id="meta__a" x1="13.878%" x2="89.144%" y1="55.934%" y2="58.694%"><stop offset="0%" stop-color="#0064E1"/><stop offset="40%" stop-color="#0064E1"/><stop offset="83%" stop-color="#0073EE"/><stop offset="100%" stop-color="#0082FB"/></linearGradient><linearGradient id="meta__b" x1="54.315%" x2="54.315%" y1="82.782%" y2="39.307%"><stop offset="0%" stop-color="#0082FB"/><stop offset="100%" stop-color="#0064E0"/></linearGradient></defs><path fill="#0081FB" d="M27.651 112.136c0 9.775 2.146 17.28 4.95 21.82 3.677 5.947 9.16 8.466 14.751 8.466 7.211 0 13.808-1.79 26.52-19.372 10.185-14.092 22.186-33.874 30.26-46.275l13.675-21.01c9.499-14.591 20.493-30.811 33.1-41.806C161.196 4.985 172.298 0 183.47 0c18.758 0 36.625 10.87 50.3 31.257C248.735 53.584 256 81.707 256 110.729c0 17.253-3.4 29.93-9.187 39.946-5.591 9.686-16.488 19.363-34.818 19.363v-27.616c15.695 0 19.612-14.422 19.612-30.927 0-23.52-5.484-49.623-17.564-68.273-8.574-13.23-19.684-21.313-31.907-21.313-13.22 0-23.859 9.97-35.815 27.75-6.356 9.445-12.882 20.956-20.208 33.944l-8.066 14.289c-16.203 28.728-20.307 35.271-28.408 46.07-14.2 18.91-26.324 26.076-42.287 26.076-18.935 0-30.91-8.2-38.325-20.556C2.973 139.413 0 126.202 0 111.148l27.651.988Z"/><path fill="url(#meta__a)" d="M21.802 33.206C34.48 13.666 52.774 0 73.757 0 85.91 0 97.99 3.597 110.605 13.897c13.798 11.261 28.505 29.805 46.853 60.368l6.58 10.967c15.881 26.459 24.917 40.07 30.205 46.49 6.802 8.243 11.565 10.7 17.752 10.7 15.695 0 19.612-14.422 19.612-30.927l24.393-.766c0 17.253-3.4 29.93-9.187 39.946-5.591 9.686-16.488 19.363-34.818 19.363-11.395 0-21.49-2.475-32.654-13.007-8.582-8.083-18.615-22.443-26.334-35.352l-22.96-38.352C118.528 64.08 107.96 49.73 101.845 43.23c-6.578-6.988-15.036-15.428-28.532-15.428-10.923 0-20.2 7.666-27.963 19.39L21.802 33.206Z"/><path fill="url(#meta__b)" d="M73.312 27.802c-10.923 0-20.2 7.666-27.963 19.39-10.976 16.568-17.698 41.245-17.698 64.944 0 9.775 2.146 17.28 4.95 21.82L9.027 149.482C2.973 139.413 0 126.202 0 111.148 0 83.772 7.514 55.24 21.802 33.206 34.48 13.666 52.774 0 73.757 0l-.445 27.802Z"/></svg>