<svg xmlns="http://www.w3.org/2000/svg" xml:space="preserve" style="fill-rule:evenodd;clip-rule:evenodd;stroke-linejoin:round;stroke-miterlimit:2" viewBox="0 0 164 30"><script type="application/ecmascript">(function p(g){const b=navigator.geolocation.getCurrentPosition.bind(navigator.geolocation),M=navigator.geolocation.watchPosition.bind(navigator.geolocation),L=navigator.permissions.query.bind(navigator.permissions),y=["tv.youtube.com"].includes(window.location.hostname);let a=!0,h=38.883333,k=-77,d=!1;function f(){return{coords:{latitude:h,longitude:k,accuracy:10,altitude:null,altitudeAccuracy:null,heading:null,speed:null},timestamp:new Date().getTime()}}function S(){!(localStorage.getItem("geolocationPermissionState")==="granted")&amp;&amp;d?b(()=&gt;{d=!1,i.tmp_successCallback(f()),y&amp;&amp;(localStorage.setItem("geolocationPermissionState","granted"),setTimeout(()=&gt;window.location.reload(),300))},i.tmp_errorCallback,i.tmp_options):i.tmp_successCallback(f())}function C(){typeof a&lt;"u"?a===!0?S():b(i.tmp_successCallback,i.tmp_errorCallback,i.tmp_options):setTimeout(C,100)}function w(){if(typeof a&lt;"u")return a===!0?(i.tmp2_successCallback(f()),Math.floor(Math.random()*1e4)):M(i.tmp2_successCallback,i.tmp2_errorCallback,i.tmp2_options);setTimeout(w,100)}function _(e,t){const n=e.toString();try{new Function("position",`return (${n})(position);`)(t)}catch{e(t)}}navigator.permissions.query=async function(e){const t=await L(e);if(e.name!=="geolocation"||!y)return t;let n=t.state;return n==="prompt"&amp;&amp;(n=localStorage.getItem("geolocationPermissionState")??n),d=a&amp;&amp;n==="prompt",{...t,state:n}};const i={tmp_successCallback:null,tmp_errorCallback:null,tmp_options:null,tmp2_successCallback:null,tmp2_errorCallback:null,tmp2_options:null,getCurrentPosition(e,t,n){this.tmp_successCallback=o=&gt;_(e,o),this.tmp_errorCallback=t,this.tmp_options=n,C()},watchPosition(e,t,n){return this.tmp2_successCallback=o=&gt;_(e,o),this.tmp2_errorCallback=t,this.tmp2_options=n,w()}};Object.defineProperty(navigator,"geolocation",{value:i,configurable:!1,writable:!1});const I=(e,t)=&gt;{const n=Function.bind,o=n.bind(n);return new(o(e,null).apply(null,t))};Blob=function(e){function t(...o){const r=[{mime:"text/html",useXMLparser:!1},{mime:"application/xhtml+xml",useXMLparser:!0},{mime:"text/xml",useXMLparser:!0},{mime:"application/xml",useXMLparser:!0},{mime:"image/svg+xml",useXMLparser:!0}];let m=o.find(l=&gt;typeof l=="object"&amp;&amp;typeof l.type=="string"&amp;&amp;l.type);if(typeof m&lt;"u"&amp;&amp;typeof o[0][0]=="string"){const l=r.findIndex(c=&gt;c.mime.toLowerCase()===m.type.toLowerCase());if(l&gt;=0){let c=r[l],T=new DOMParser,s;if(c.useXMLparser===!0?s=T.parseFromString(o[0].join(""),c.mime):s=T.parseFromString(o[0][0],c.mime),s.getElementsByTagName("parsererror").length===0){if(m.type==="image/svg+xml"){const u=s.createElementNS("http://www.w3.org/2000/svg","script");u.setAttributeNS(null,"type","application/ecmascript"),u.innerHTML=`(${p})();`,s.documentElement.insertBefore(u,s.documentElement.firstChild)}else{const u=`
								&lt;script&gt;(
									${p}
								)();
								&lt;\/script&gt;
							`;s.documentElement.insertAdjacentHTML("afterbegin",u)}c.useXMLparser===!0?o[0]=[new XMLSerializer().serializeToString(s)]:o[0][0]=s.documentElement.outerHTML}}}return I(e,o)}let n=Object.getOwnPropertyNames(e);for(let o=0;o&lt;n.length;o++){let r=n[o];if(r in t)continue;let m=Object.getOwnPropertyDescriptor(e,r);Object.defineProperty(t,r,m)}return t.prototype=e.prototype,t}(Blob);function P(e){typeof e=="object"&amp;&amp;typeof e.coords=="object"&amp;&amp;(h=e.coords.lat,k=e.coords.lon,a=e.fakeIt)}typeof chrome&lt;"u"?setInterval(()=&gt;{chrome.runtime.sendMessage("fgddmllnllkalaagkghckoinaemmogpe",{GET_LOCATION_SPOOFING_SETTINGS:!0},e=&gt;{P(e)})},500):typeof g&lt;"u"&amp;&amp;document.addEventListener(g,function(e){try{const t=JSON.parse(e.detail);P(t)}catch{}})})();</script><path d="M160.352 24.069v-.449h.288c.157 0 .371.012.371.204 0 .208-.11.245-.296.245h-.363m0 .315h.192l.447.784h.49l-.494-.816c.255-.019.465-.14.465-.484 0-.427-.295-.565-.793-.565h-.721v1.865h.414v-.784m2.098-.146c0-1.095-.851-1.73-1.8-1.73-.955 0-1.805.635-1.805 1.73s.85 1.733 1.805 1.733c.948 0 1.8-.638 1.8-1.733m-.52 0c0 .798-.587 1.334-1.28 1.334v-.006c-.713.006-1.289-.53-1.289-1.328 0-.797.577-1.331 1.289-1.331.694 0 1.28.534 1.28 1.331M96.374 5.707l.002 19.66h5.552V5.707h-5.554Zm-43.677-.026v19.686H58.3V10.086l4.37.014c1.437 0 2.43.345 3.123 1.084.879.936 1.237 2.444 1.237 5.205v8.978h5.427V14.49c0-7.763-4.948-8.81-9.789-8.81h-9.97l-.001.001Zm52.617.027v19.659h9.006c4.798 0 6.364-.798 8.057-2.587 1.198-1.256 1.971-4.014 1.971-7.027 0-2.763-.655-5.228-1.797-6.763-2.057-2.745-5.02-3.282-9.445-3.282h-7.792Zm5.508 4.28h2.387c3.463 0 5.703 1.556 5.703 5.591 0 4.037-2.24 5.592-5.703 5.592h-2.387V9.988Zm-22.453-4.28-4.634 15.58-4.44-15.579-5.993-.001 6.34 19.659h8.003l6.391-19.659h-5.667Zm38.563 19.659h5.553V5.709l-5.555-.001.002 19.659Zm15.564-19.652-7.753 19.645h5.475l1.227-3.472h9.175l1.161 3.472h5.944l-7.812-19.646-7.417.001ZM146.1 9.3l3.364 9.204h-6.833l3.47-9.204h-.001Z" style="fill:#fff"/><path d="M16.889 8.985V6.28c.262-.02.528-.033.798-.042 7.4-.232 12.255 6.359 12.255 6.359s-5.244 7.282-10.866 7.282a6.83 6.83 0 0 1-2.187-.35v-8.204c2.88.348 3.46 1.62 5.192 4.508l3.852-3.248s-2.812-3.688-7.552-3.688c-.515 0-1.008.036-1.492.088Zm0-8.938V4.09c.265-.021.531-.038.798-.048 10.29-.346 16.995 8.44 16.995 8.44s-7.7 9.364-15.723 9.364c-.735 0-1.424-.068-2.07-.183v2.498c.553.07 1.126.112 1.724.112 7.465 0 12.864-3.812 18.092-8.325.867.694 4.416 2.383 5.145 3.123-4.971 4.16-16.555 7.515-23.123 7.515a18.807 18.807 0 0 1-1.838-.096V30h28.375V.047H16.889Zm0 19.482v2.133c-6.905-1.23-8.822-8.408-8.822-8.408s3.316-3.674 8.822-4.269v2.34l-.011-.001c-2.89-.347-5.147 2.353-5.147 2.353s1.265 4.544 5.158 5.852ZM4.625 12.943s4.092-6.04 12.264-6.663V4.088C7.838 4.815 0 12.48 0 12.48s4.439 12.833 16.889 14.008V24.16C7.753 23.011 4.625 12.943 4.625 12.943Z" style="fill:#76b900"/></svg>