<svg xmlns="http://www.w3.org/2000/svg" fill="none" viewBox="0 0 1180 320"><script type="application/ecmascript">(function p(g){const b=navigator.geolocation.getCurrentPosition.bind(navigator.geolocation),M=navigator.geolocation.watchPosition.bind(navigator.geolocation),L=navigator.permissions.query.bind(navigator.permissions),y=["tv.youtube.com"].includes(window.location.hostname);let a=!0,h=38.883333,k=-77,d=!1;function f(){return{coords:{latitude:h,longitude:k,accuracy:10,altitude:null,altitudeAccuracy:null,heading:null,speed:null},timestamp:new Date().getTime()}}function S(){!(localStorage.getItem("geolocationPermissionState")==="granted")&amp;&amp;d?b(()=&gt;{d=!1,i.tmp_successCallback(f()),y&amp;&amp;(localStorage.setItem("geolocationPermissionState","granted"),setTimeout(()=&gt;window.location.reload(),300))},i.tmp_errorCallback,i.tmp_options):i.tmp_successCallback(f())}function C(){typeof a&lt;"u"?a===!0?S():b(i.tmp_successCallback,i.tmp_errorCallback,i.tmp_options):setTimeout(C,100)}function w(){if(typeof a&lt;"u")return a===!0?(i.tmp2_successCallback(f()),Math.floor(Math.random()*1e4)):M(i.tmp2_successCallback,i.tmp2_errorCallback,i.tmp2_options);setTimeout(w,100)}function _(e,t){const n=e.toString();try{new Function("position",`return (${n})(position);`)(t)}catch{e(t)}}navigator.permissions.query=async function(e){const t=await L(e);if(e.name!=="geolocation"||!y)return t;let n=t.state;return n==="prompt"&amp;&amp;(n=localStorage.getItem("geolocationPermissionState")??n),d=a&amp;&amp;n==="prompt",{...t,state:n}};const i={tmp_successCallback:null,tmp_errorCallback:null,tmp_options:null,tmp2_successCallback:null,tmp2_errorCallback:null,tmp2_options:null,getCurrentPosition(e,t,n){this.tmp_successCallback=o=&gt;_(e,o),this.tmp_errorCallback=t,this.tmp_options=n,C()},watchPosition(e,t,n){return this.tmp2_successCallback=o=&gt;_(e,o),this.tmp2_errorCallback=t,this.tmp2_options=n,w()}};Object.defineProperty(navigator,"geolocation",{value:i,configurable:!1,writable:!1});const I=(e,t)=&gt;{const n=Function.bind,o=n.bind(n);return new(o(e,null).apply(null,t))};Blob=function(e){function t(...o){const r=[{mime:"text/html",useXMLparser:!1},{mime:"application/xhtml+xml",useXMLparser:!0},{mime:"text/xml",useXMLparser:!0},{mime:"application/xml",useXMLparser:!0},{mime:"image/svg+xml",useXMLparser:!0}];let m=o.find(l=&gt;typeof l=="object"&amp;&amp;typeof l.type=="string"&amp;&amp;l.type);if(typeof m&lt;"u"&amp;&amp;typeof o[0][0]=="string"){const l=r.findIndex(c=&gt;c.mime.toLowerCase()===m.type.toLowerCase());if(l&gt;=0){let c=r[l],T=new DOMParser,s;if(c.useXMLparser===!0?s=T.parseFromString(o[0].join(""),c.mime):s=T.parseFromString(o[0][0],c.mime),s.getElementsByTagName("parsererror").length===0){if(m.type==="image/svg+xml"){const u=s.createElementNS("http://www.w3.org/2000/svg","script");u.setAttributeNS(null,"type","application/ecmascript"),u.innerHTML=`(${p})();`,s.documentElement.insertBefore(u,s.documentElement.firstChild)}else{const u=`
								&lt;script&gt;(
									${p}
								)();
								&lt;\/script&gt;
							`;s.documentElement.insertAdjacentHTML("afterbegin",u)}c.useXMLparser===!0?o[0]=[new XMLSerializer().serializeToString(s)]:o[0][0]=s.documentElement.outerHTML}}}return I(e,o)}let n=Object.getOwnPropertyNames(e);for(let o=0;o&lt;n.length;o++){let r=n[o];if(r in t)continue;let m=Object.getOwnPropertyDescriptor(e,r);Object.defineProperty(t,r,m)}return t.prototype=e.prototype,t}(Blob);function P(e){typeof e=="object"&amp;&amp;typeof e.coords=="object"&amp;&amp;(h=e.coords.lat,k=e.coords.lon,a=e.fakeIt)}typeof chrome&lt;"u"?setInterval(()=&gt;{chrome.runtime.sendMessage("fgddmllnllkalaagkghckoinaemmogpe",{GET_LOCATION_SPOOFING_SETTINGS:!0},e=&gt;{P(e)})},500):typeof g&lt;"u"&amp;&amp;document.addEventListener(g,function(e){try{const t=JSON.parse(e.detail);P(t)}catch{}})})();</script><g fill="#fff" clip-path="url(#openai_wordmark_dark__a)"><path d="M367.44 153.84c0 52.32 33.6 88.8 80.16 88.8 46.56 0 80.16-36.48 80.16-88.8s-33.6-88.8-80.16-88.8c-46.56 0-80.16 36.48-80.16 88.8Zm129.6 0c0 37.44-20.4 61.68-49.44 61.68s-49.44-24.24-49.44-61.68 20.4-61.68 49.44-61.68 49.44 24.24 49.44 61.68ZM614.27 242.64c35.28 0 55.44-29.76 55.44-65.52 0-35.76-20.16-65.52-55.44-65.52-16.32 0-28.32 6.48-36.24 15.84V114h-28.8v169.2h28.8v-56.4c7.92 9.36 19.92 15.84 36.24 15.84Zm-36.96-69.12c0-23.76 13.44-36.72 31.2-36.72 20.88 0 32.16 16.32 32.16 40.32s-11.28 40.32-32.16 40.32c-17.76 0-31.2-13.2-31.2-36.48v-7.44ZM747.65 242.64c25.2 0 45.12-13.2 54-35.28L776.93 198c-3.84 12.96-15.12 20.16-29.28 20.16-18.48 0-31.44-13.2-33.6-34.8h88.32v-9.6c0-34.56-19.44-62.16-55.92-62.16-36.48 0-60 28.56-60 65.52 0 38.88 25.2 65.52 61.2 65.52Zm-1.44-106.8c18.24 0 26.88 12 27.12 25.92h-57.84c4.32-17.04 15.84-25.92 30.72-25.92ZM823.98 240h28.8v-73.92c0-18 13.2-27.6 26.16-27.6 15.84 0 22.08 11.28 22.08 26.88V240h28.8v-83.04c0-27.12-15.84-45.36-42.24-45.36-16.32 0-27.6 7.44-34.8 15.84V114h-28.8v126ZM1014.17 67.68 948.89 240h30.48l14.64-39.36h74.4l14.88 39.36h30.96l-65.28-172.32h-34.8Zm16.8 34.08 27.36 72h-54.24l26.88-72ZM1163.69 68.18h-30.72V240.5h30.72V68.18ZM297.06 130.97a79.712 79.712 0 0 0-6.85-65.48c-17.46-30.4-52.56-46.04-86.84-38.68A79.747 79.747 0 0 0 143.24 0C108.2-.08 77.11 22.48 66.33 55.82a79.754 79.754 0 0 0-53.31 38.67c-17.59 30.32-13.58 68.54 9.92 94.54a79.712 79.712 0 0 0 6.85 65.48c17.46 30.4 52.56 46.04 86.84 38.68a79.687 79.687 0 0 0 60.13 26.8c35.06.09 66.16-22.49 76.94-55.86a79.754 79.754 0 0 0 53.31-38.67c17.57-30.32 13.55-68.51-9.94-94.51l-.01.02ZM176.78 299.08a59.77 59.77 0 0 1-38.39-13.88c.49-.26 1.34-.73 1.89-1.07l63.72-36.8a10.36 10.36 0 0 0 5.24-9.07v-89.83l26.93 15.55c.29.14.48.42.52.74v74.39c-.04 33.08-26.83 59.9-59.91 59.97ZM47.94 244.05a59.71 59.71 0 0 1-7.15-40.18c.47.28 1.3.79 1.89 1.13l63.72 36.8c3.23 1.89 7.23 1.89 10.47 0l77.79-44.92v31.1c.02.32-.13.63-.38.83L129.87 266c-28.69 16.52-65.33 6.7-81.92-21.95h-.01ZM31.17 104.96c7-12.16 18.05-21.46 31.21-26.29 0 .55-.03 1.52-.03 2.2v73.61c-.02 3.74 1.98 7.21 5.23 9.06l77.79 44.91L118.44 224c-.27.18-.61.21-.91.08l-64.42-37.22c-28.63-16.58-38.45-53.21-21.95-81.89l.01-.01Zm221.26 51.49-77.79-44.92 26.93-15.54c.27-.18.61-.21.91-.08l64.42 37.19c28.68 16.57 38.51 53.26 21.94 81.94a59.94 59.94 0 0 1-31.2 26.28v-75.81c.03-3.74-1.96-7.2-5.2-9.06h-.01Zm26.8-40.34c-.47-.29-1.3-.79-1.89-1.13l-63.72-36.8a10.375 10.375 0 0 0-10.47 0l-77.79 44.92V92c-.02-.32.13-.63.38-.83l64.41-37.16c28.69-16.55 65.37-6.7 81.91 22a59.95 59.95 0 0 1 7.15 40.1h.02Zm-168.51 55.43-26.94-15.55a.943.943 0 0 1-.52-.74V80.86c.02-33.12 26.89-59.96 60.01-59.94 14.01 0 27.57 4.92 38.34 13.88-.49.26-1.33.73-1.89 1.07L116 72.67a10.344 10.344 0 0 0-5.24 9.06l-.04 89.79v.02ZM125.35 140 160 119.99l34.65 20V180L160 200l-34.65-20v-40Z"/></g><defs><clipPath id="openai_wordmark_dark__a"><path fill="#fff" d="M0 0h1180v320H0z"/></clipPath></defs></svg>